<svg xmlns="http://www.w3.org/2000/svg" viewBox="0 0 48 48" fill="none" role="img" aria-label="Locatic">
  <rect width="48" height="48" rx="12" fill="#2563eb"/>
  <path d="M10 28.5c0-1.1.9-2 2-2h24c1.1 0 2 .9 2 2v2.5c0 .8-.7 1.5-1.5 1.5h-1.2a2.5 2.5 0 0 1-4.9 0h-14.8a2.5 2.5 0 0 1-4.9 0H11.5c-.8 0-1.5-.7-1.5-1.5V28.5z" fill="#fff"/>
  <path d="M13.5 26.5l2.8-7.5c.4-1 1.3-1.7 2.4-1.7h12.6c1.1 0 2 .7 2.4 1.7l2.8 7.5" stroke="#fff" stroke-width="2" stroke-linecap="round" stroke-linejoin="round"/>
  <circle cx="16" cy="32" r="2.2" fill="#0ea5e9"/>
  <circle cx="32" cy="32" r="2.2" fill="#0ea5e9"/>
  <path d="M24 11v5" stroke="#93c5fd" stroke-width="2" stroke-linecap="round"/>
  <circle cx="24" cy="9" r="2.5" fill="#93c5fd"/>
</svg>
